Coordinates
version=1
nRows=4
nColumns=107
inDegrees=yes

Units are S.I. units (second, meters, Newtons, ...)
If the header above contains a line with 'inDegrees', this indicates whether rotational values are in degrees (yes) or radians (no).

endheader
time	sternoclavicular_r2	sternoclavicular_r3	unrotscap_r3	unrotscap_r2	acromioclavicular_r2	acromioclavicular_r3	acromioclavicular_r1	unrothum_r1	unrothum_r3	unrothum_r2	elv_angle	shoulder_elv	shoulder1_r2	shoulder_rot	elbow_flexion	pro_sup	deviation	flexion	proximal_distal_r1	proximal_distal_r3	cmc_flexion	cmc_abduction	mp_flexion	ip_flexion	mcp2_flexion	mcp2_abduction	pm2_flexion	md2_flexion	mcp3_flexion	mcp3_abduction	pm3_flexion	md3_flexion	mcp4_flexion	mcp4_abduction	pm4_flexion	md4_flexion	mcp5_flexion	mcp5_abduction	pm5_flexion	md5_flexion	bicpt_tx	bicpt_ty	bicpt_tz	bicpt2_tx	bicpt2_ty	bicpt2_tz	ptpt_tx	ptpt_ty	ptpt_tz	FCUpt_tx	FCUpt_ty	FCUpt_tz	EDCpt_tx	EDCpt_ty	EDCpt_tz	APLpt_tx	APLpt_ty	APLpt_tz	FPLpt_tx	FPLpt_ty	FPLpt_tz	FPLpt2_tx	FPLpt2_ty	FPLpt2_tz	PEC1pt2_tx	PEC1pt2_ty	PEC1pt2_tz	PEC1pt3_tx	PEC1pt3_ty	PEC1pt3_tz	PEC2pt2_tx	PEC2pt2_ty	PEC2pt2_tz	PEC2pt3_tx	PEC2pt3_ty	PEC2pt3_tz	PEC3pt2_tx	PEC3pt2_ty	PEC3pt2_tz	PEC3pt3_tx	PEC3pt3_ty	PEC3pt3_tz	DELT2pt2a_tx	DELT2pt2a_ty	DELT2pt2a_tz	DELT2pt2_tx	DELT2pt2_ty	DELT2pt2_tz	LAT1pt2_tx	LAT1pt2_ty	LAT1pt2_tz	LAT1pt3_tx	LAT1pt3_ty	LAT1pt3_tz	LAT2pt2_tx	LAT2pt2_ty	LAT2pt2_tz	LAT2pt3_tx	LAT2pt3_ty	LAT2pt3_tz	LAT3pt2_tx	LAT3pt2_ty	LAT3pt2_tz	LAT3pt3_tx	LAT3pt3_ty	LAT3pt3_tz
      0.00000000	     -0.32253742	      0.13661163	     -0.13661163	      0.32253742	     -0.06530727	      0.52779035	      0.23723813	     -0.23723813	     -0.52779035	      0.06530727	     99.66023754	     76.36360072	     -1.73939928	    -26.54280090	     28.55000199	     62.66874884	      0.29828176	     -0.77958881	      0.33198623	     -0.38979441	     35.92821714	    -12.06068937	    -17.14282860	      1.14527925	     92.27999992	     13.09859342	     81.34126536	     68.00185945	     91.50749403	      2.16539574	     81.84857752	     47.10397588	     83.19792641	    -13.14299914	     94.22680663	     85.31294133	     92.56569252	    -14.06529495	     93.05354841	      5.17908959	      0.00084435	     -0.03087227	     -0.00482708	      0.01602895	     -0.01795575	     -0.00468986	      0.00291949	     -0.06789417	     -0.00509830	      0.01014180	     -0.18295054	     -0.00035385	     -0.00752023	      0.00238168	     -0.00015557	      0.00028873	      0.00011549	      0.00057745	      0.00036957	      0.00110871	      0.00062365	     -0.00001285	     -0.00018108	     -0.00021730	      0.00250303	      0.00878182	      0.00610909	     -0.00818788	      0.01976970	     -0.01875152	      0.00250303	      0.00878182	      0.00610909	      0.00055152	      0.01832728	     -0.00963031	      0.00395538	      0.00488346	      0.01598579	      0.00000000	      0.00779898	      0.00000000	     -0.00716970	     -0.03313335	     -0.00643073	      0.01726554	     -0.00064088	     -0.00589057	     -0.00089091	      0.01493334	     -0.00610909	      0.00246061	      0.02155152	     -0.01781819	     -0.00598182	      0.01293940	     -0.00547273	     -0.01247273	      0.02732122	     -0.03058789	     -0.02341819	      0.01446667	     -0.00733940	     -0.01552728	      0.03156365	     -0.03822426
      0.03333333	     -0.32243216	      0.13656705	     -0.13656705	      0.32243216	     -0.06528595	      0.52761812	      0.23716071	     -0.23716071	     -0.52761812	      0.06528595	     99.67958005	     76.33868085	     -1.73973687	    -26.53264710	     28.54780096	     62.67086567	      0.29826036	     -0.77954537	      0.33196753	     -0.38977268	     35.92414728	    -12.06077039	    -17.14495721	      1.14455420	     92.28073215	     13.09928731	     81.34144401	     68.00186571	     91.51111357	      2.16640413	     81.85007492	     47.10453569	     83.19839674	    -13.14265759	     94.22593926	     85.31293137	     92.56424273	    -14.06517917	     93.05468541	      5.17945684	      0.00084427	     -0.03087201	     -0.00482704	      0.01602885	     -0.01795515	     -0.00468956	      0.00291933	     -0.06789427	     -0.00509847	      0.01014203	     -0.18295048	     -0.00035383	     -0.00752049	      0.00238178	     -0.00015561	      0.00028867	      0.00011547	      0.00057734	      0.00036950	      0.00110850	      0.00062353	     -0.00001285	     -0.00018113	     -0.00021736	      0.00250221	      0.00877896	      0.00610710	     -0.00818521	      0.01976325	     -0.01874540	      0.00250221	      0.00877896	      0.00610710	      0.00055134	      0.01832130	     -0.00962716	      0.00395443	      0.00488187	      0.01598350	      0.00000000	      0.00779386	      0.00000000	     -0.00716736	     -0.03312253	     -0.00642647	      0.01726054	     -0.00064054	     -0.00588611	     -0.00089062	      0.01492847	     -0.00610710	      0.00245980	      0.02154449	     -0.01781237	     -0.00597987	      0.01293518	     -0.00547094	     -0.01246866	      0.02731231	     -0.03057791	     -0.02341055	      0.01446195	     -0.00733700	     -0.01552221	      0.03155335	     -0.03821178
      0.06666667	     -0.31961855	      0.13537533	     -0.13537533	      0.31961855	     -0.06471625	      0.52301401	      0.23509120	     -0.23509120	     -0.52301401	      0.06471625	     99.99095612	     75.67253267	     -1.74517141	    -29.23003607	     29.70796941	     67.28682556	      0.33678474	     -0.61670852	      0.36422635	     -0.30835426	     34.98134203	    -12.51214491	    -16.48906061	      0.36614389	     91.70226265	     13.32407684	     82.17956742	     68.78945653	     90.98965148	      2.83745176	     83.08137865	     50.79953181	     82.33187490	    -12.92754146	     94.01652952	     85.28951577	     89.35414228	    -14.05943791	     96.10823964	      5.30897101	      0.00088265	     -0.03100499	     -0.00484845	      0.01577371	     -0.01827032	     -0.00403515	      0.00257826	     -0.06811481	     -0.00547031	      0.01064234	     -0.18282172	     -0.00029977	     -0.00807440	      0.00260514	     -0.00025123	      0.00031249	      0.00012500	      0.00062499	      0.00039999	      0.00119997	      0.00067499	     -0.00001272	     -0.00019471	     -0.00023365	      0.00248038	      0.00870235	      0.00605381	     -0.00811378	      0.01959079	     -0.01858183	      0.00248038	      0.00870235	      0.00605381	      0.00054652	      0.01816142	     -0.00954316	      0.00392918	      0.00483927	      0.01592159	      0.00000000	      0.00765749	      0.00000000	     -0.00710482	     -0.03283350	     -0.00631326	      0.01853280	     -0.00073090	     -0.00712747	     -0.00088285	      0.01479820	     -0.00605381	      0.00243834	      0.02135649	     -0.01765694	     -0.00592769	      0.01282230	     -0.00542320	     -0.01235986	      0.02707397	     -0.03031108	     -0.02320626	      0.01433575	     -0.00727298	     -0.01538676	      0.03127801	     -0.03787834
      0.10000000	     -0.31957308	      0.13535607	     -0.13535607	      0.31957308	     -0.06470705	      0.52293961	      0.23505775	     -0.23505775	     -0.52293961	      0.06470705	    100.00573958	     75.66176788	     -1.74542943	    -29.22277308	     29.71457373	     67.28815717	      0.33677159	     -0.61671179	      0.36421540	     -0.30835589	     34.97942313	    -12.51297319	    -16.49017932	      0.36582246	     91.70226395	     13.32416485	     82.17915216	     68.78915877	     90.99092693	      2.83763495	     83.08161942	     50.79957464	     82.33569787	    -12.92660429	     94.01838153	     85.28906735	     89.35459490	    -14.05950114	     96.10954005	      5.30921809	      0.00088287	     -0.03100574	     -0.00484858	      0.01577361	     -0.01827211	     -0.00403495	      0.00257816	     -0.06811487	     -0.00547042	      0.01064249	     -0.18282168	     -0.00029974	     -0.00807456	      0.00260521	     -0.00025127	      0.00031247	      0.00012499	      0.00062494	      0.00039996	      0.00119989	      0.00067494	     -0.00001272	     -0.00019473	     -0.00023368	      0.00248003	      0.00870111	      0.00605295	     -0.00811263	      0.01958801	     -0.01857918	      0.00248003	      0.00870111	      0.00605295	      0.00054645	      0.01815884	     -0.00954180	      0.00392877	      0.00483858	      0.01592058	      0.00000000	      0.00765530	      0.00000000	     -0.00710381	     -0.03282883	     -0.00631144	      0.01852943	     -0.00073065	     -0.00712407	     -0.00088272	      0.01479609	     -0.00605295	      0.00243799	      0.02135345	     -0.01765443	     -0.00592684	      0.01282048	     -0.00542243	     -0.01235810	      0.02707012	     -0.03030677	     -0.02320296	      0.01433371	     -0.00727194	     -0.01538457	      0.03127356	     -0.03787295
